<svg id="Capa_1" data-name="Capa 1" xmlns="http://www.w3.org/2000/svg" viewBox="0 0 269.21 262.14"><defs><style>.cls-1{fill:none;stroke:#000;stroke-miterlimit:10;stroke-width:3px;}</style></defs><ellipse class="cls-1" cx="134.03" cy="132.33" rx="129.09" ry="127.33"/><polygon points="131.63 42.03 133.72 42.03 164.03 101.83 159.85 101.83 132.67 47.96 105.24 101.83 101.06 101.83 131.63 42.03"/><polygon points="88.38 134.95 84.2 134.95 55.46 191.39 55.46 193.97 209.36 193.97 209.36 191.91 180.62 134.95 176.83 134.95 204.79 190.49 60.3 190.49 88.38 134.95"/><path d="M80.14,107.89q2.19,5.06,4.34,10.1t4.33,10.37l-1.51.39L83.88,121H76.56l-3.42,7.8-1.59-.39Zm3.07,11.68-3.07-7.76-.57,1.47c-.2.51-.41,1.07-.64,1.69s-.48,1.29-.78,2-.61,1.6-1,2.56Z"/><path d="M116.84,107.81v20.9h-1.75V112.48l-2.9,3.64-4.42,5.42-7.39-9.1v16.27H98.71v-21l9.06,11.14Z"/><path d="M136.21,108.08a5.14,5.14,0,0,1,2.15.45,5.43,5.43,0,0,1,1.72,1.2,5.21,5.21,0,0,1,1.11,1.7,5.11,5.11,0,0,1,.4,2,4.94,4.94,0,0,1-.66,2.47,6.49,6.49,0,0,1-1.72,2,5.47,5.47,0,0,1,2.14,2.1,5.75,5.75,0,0,1,.8,3,5.88,5.88,0,0,1-.44,2.24A5.61,5.61,0,0,1,140.5,127a5.67,5.67,0,0,1-1.81,1.24,5.52,5.52,0,0,1-2.23.45h-8.31V108.08Zm3.63,5.38a3.77,3.77,0,0,0-.27-1.44,3.7,3.7,0,0,0-.78-1.16,3.39,3.39,0,0,0-1.16-.78,3.83,3.83,0,0,0-1.43-.27h-6.3v7.29h6.3a3.48,3.48,0,0,0,1.43-.29,3.73,3.73,0,0,0,1.16-.79,3.87,3.87,0,0,0,.78-1.17A3.62,3.62,0,0,0,139.84,113.46ZM136.48,127a3.82,3.82,0,0,0,2.85-1.18,3.92,3.92,0,0,0,1.15-2.86,4.14,4.14,0,0,0-.32-1.59,4,4,0,0,0-.85-1.31,4.27,4.27,0,0,0-1.27-.89,3.77,3.77,0,0,0-1.56-.33H129.9V127Z"/><path d="M118.06,134.88a3.85,3.85,0,0,1,1.52.3,4,4,0,0,1,1.24.83,3.9,3.9,0,0,1,.84,1.23,3.63,3.63,0,0,1,.31,1.5,3.55,3.55,0,0,1-.31,1.49,3.9,3.9,0,0,1-.84,1.23,3.94,3.94,0,0,1-1.24.82,3.85,3.85,0,0,1-1.52.3h-2.37v-7.7Zm3.39,3.86a3.15,3.15,0,0,0-.27-1.3,3.42,3.42,0,0,0-1.81-1.78,3.23,3.23,0,0,0-1.31-.27h-1.85v6.68h1.85a3.4,3.4,0,0,0,1.31-.26,3.64,3.64,0,0,0,1.08-.72,3.36,3.36,0,0,0,.73-1.05A3.19,3.19,0,0,0,121.45,138.74Z"/><path d="M179.77,120.79v7.92H178.1V108.08H184a6.22,6.22,0,0,1,2.57.53,6.4,6.4,0,0,1,3.36,3.45,6.12,6.12,0,0,1,.48,2.37,6.37,6.37,0,0,1-1,3.51,5.69,5.69,0,0,1-2.88,2.29l2.19,2.75q.48.58,1.05,1.35l1.17,1.54,1.18,1.51,1,1.33h-2.19l-6.2-7.92Zm0-11v9.25H184a4.83,4.83,0,0,0,1.87-.36,4.68,4.68,0,0,0,1.51-1,4.5,4.5,0,0,0,1.36-3.22,4.67,4.67,0,0,0-.36-1.83,4.35,4.35,0,0,0-1-1.48,4.5,4.5,0,0,0-1.51-1,4.66,4.66,0,0,0-1.87-.37Z"/><path d="M159.84,107.89q2.19,5.06,4.33,10.1t4.34,10.37l-1.51.39L163.58,121h-7.32l-3.42,7.8-1.59-.39Zm3.06,11.68-3.06-7.76c-.19.47-.38,1-.58,1.47s-.41,1.07-.64,1.69-.48,1.29-.77,2-.61,1.6-.95,2.56Z"/><path d="M126.38,142.68V135h4.45v.52H126.9v2.4h2.65v.51H126.9v3.76h4.21v.52Z"/><path d="M141.15,141.84a4.49,4.49,0,0,1-1.26.74,3.77,3.77,0,0,1-1.42.26,3.83,3.83,0,0,1-1.55-.31,4.06,4.06,0,0,1-1.26-.85,3.92,3.92,0,0,1-.85-4.31,3.81,3.81,0,0,1,.85-1.24,4.06,4.06,0,0,1,1.26-.85,4,4,0,0,1,1.55-.3,3.87,3.87,0,0,1,1.26.21,4.83,4.83,0,0,1,1.21.63l-.42.31a3.51,3.51,0,0,0-1-.48,3.58,3.58,0,0,0-1.08-.16,3.39,3.39,0,0,0-1.35.27,3.58,3.58,0,0,0-1.1.73,3.49,3.49,0,0,0-.73,1.08,3.38,3.38,0,0,0-.27,1.34,3.25,3.25,0,0,0,.27,1.32,3.42,3.42,0,0,0,.73,1.09,3.8,3.8,0,0,0,1.1.74,3.39,3.39,0,0,0,1.35.27,3.21,3.21,0,0,0,1.23-.24,4.16,4.16,0,0,0,1.12-.67Z"/><path d="M148.67,135.09a4,4,0,0,1,2.81,1.16,3.86,3.86,0,0,1,.85,1.24,3.93,3.93,0,0,1,0,3.06,4,4,0,0,1-.85,1.25,4.13,4.13,0,0,1-1.27.84,3.78,3.78,0,0,1-1.54.31,3.83,3.83,0,0,1-1.55-.31,4.21,4.21,0,0,1-1.26-.84,3.85,3.85,0,0,1-.85-1.25,3.82,3.82,0,0,1,0-3.06,3.7,3.7,0,0,1,.85-1.24,4.06,4.06,0,0,1,1.26-.85A4,4,0,0,1,148.67,135.09Zm3.45,3.93a3.29,3.29,0,0,0-.27-1.33,3.52,3.52,0,0,0-.74-1.08,3.47,3.47,0,0,0-1.1-.73,3.34,3.34,0,0,0-1.34-.27,3.45,3.45,0,0,0-2.44,1,3.35,3.35,0,0,0-.74,1.08,3.14,3.14,0,0,0-.28,1.33,3.17,3.17,0,0,0,.28,1.33,3.29,3.29,0,0,0,.74,1.09,3.59,3.59,0,0,0,1.09.73,3.39,3.39,0,0,0,1.35.27,3.34,3.34,0,0,0,1.34-.27,3.64,3.64,0,0,0,1.1-.73,3.45,3.45,0,0,0,.74-1.09A3.33,3.33,0,0,0,152.12,139Z"/></svg>