<svg id="Capa_1" data-name="Capa 1" xmlns="http://www.w3.org/2000/svg" viewBox="0 0 1417.32 1984.25"><defs><style>.cls-1{fill:#fd0;}.cls-2{fill:#1d1d1b;}</style></defs><rect class="cls-1" x="141.73" y="141.73" width="1133.86" height="1700.79"/><path class="cls-2" d="M907.37,255.15a358.76,358.76,0,0,0-16,92.94c-1,28.36,1.74,58.06,15.92,83.22,28.26,50.14,88.37,68,139.79,83.39,53.54,16,106.78,37.56,143.79,81.41,35.47,42,48.6,99.43,25.8,150.6-23.24,52.15-71.18,91.08-84.73,147.95-6,25.07-2.45,50,9.47,72.69,11,21,26.85,39,41.29,57.62,14.19,18.35,27.68,38,33.56,60.73,6.85,26.5,3,54.44-6.51,79.78-20.43,54.38-64.34,93-103.93,133.49-37.26,38.07-82.75,87.6-65,145.28,16.91,54.9,70.57,83.41,121.32,100.65,14.12,4.8,28.44,9,42.75,13.21a275.05,275.05,0,0,0,34.51,7.68c.83.13,7.19,1.38,7.38.57s-7.26-2.71-6.93-2.61c-52.8-15.53-110-34.52-139.56-84.75-13.26-22.49-18.66-48.91-11.66-74.38,7.49-27.3,25.88-50.77,44.31-71.65,37.83-42.86,84.74-78.71,112.9-129.39,12.95-23.29,22.15-49.41,22.7-76.26.51-25.1-7.63-48.22-21-69.16-24.63-38.43-65.56-71.58-69.53-120-4.78-58.36,41-104.26,70.3-149.58,14.86-23,27-48.26,28.82-76,1.78-26.77-5.3-53.63-17.95-77.12-25.6-47.52-73.19-78.44-122.45-97.33C1083.44,517.78,1021.6,510.4,978.31,470c-20.12-18.79-32-43-36.16-70.16-4.47-29.3-1.94-59.94,3.14-89A362.68,362.68,0,0,1,956.18,266c.24-.8-47.76-14.26-48.81-10.86Z"/><path class="cls-2" d="M1297.15,1587.91c-104.78-13.77-209.87-27.5-312.8-52-21.87-5.2-43.75-11.12-64.17-20.7A154.29,154.29,0,0,1,866.85,1474c-14.78-17.71-26.79-37.8-37.88-58a478.29,478.29,0,0,1-29.74-64.61A392.67,392.67,0,0,1,787.16,1313c-1.53-5.92-2.84-11.87-4-17.86-1.12-5.58.17,1.1-.41-2.11-.17-1-1.77-6.51-.46-2.68-.31-.9-.65-4.68.11.79.41,2.95.74,5.9,1,8.87-.55-5.7.28,3.88-.16-1.82-.19-2.39-.07-.39-.2-3-.15-3.15-.29-6.31-.33-9.47-.08-6.29.1-12.59.49-18.86a246.42,246.42,0,0,1,5.8-40c.52-2.25.06-5.19-.1-7.37-.44-5.87-1.1-11.75-1.83-17.58s-1.48-11.7-2.48-17.51c-.28-1.63-2-5.85-1.69-7.17a270.88,270.88,0,0,0-6.34,73.54,560.17,560.17,0,0,0,14.2,103.36c11.45,48,32.46,93.55,58.3,135.48,12.67,20.56,27,40.65,45.94,55.93,18.61,15,40.85,24.5,63.54,31.46,24.69,7.58,50.13,12.89,75.39,18.17,27.51,5.75,55.15,10.85,82.87,15.52,61.92,10.41,124.19,18.6,186.44,26.78.4,0-1.69-23.09-1.92-25-.73-5.85-1.49-11.7-2.49-17.51-.16-.95-.78-7-1.68-7.17Z"/><path class="cls-2" d="M784.69,1163.59c-2.52,1.13-5.05,2.22-7.57,3.34-3.1,1.38,3.55-1.49.42-.17l-3.38,1.43c-3.6,1.55,5.85-2.38.2-.08a33.12,33.12,0,0,0-3.4,1.39c.6-.33,5.35-2.12,1-.42-1.13.45-6.37,2.52-1.27.52-2.28.9-4.58,1.76-6.87,2.62-.55.21-3.51,1.3-.42.17l-3.45,1.26c-5,1.82-8.83,3.16-13.65,4.79q-30.17,10.15-61.09,17.76a789.82,789.82,0,0,1-127.76,20.66,751,751,0,0,1-126.81-.47c-40.87-3.75-81.65-11.61-120-26.49-67.61-26.24-128.43-77.67-151.21-148.37C132.55,958,175,875.53,209,801q58.23-127.57,116.45-255.17L339.55,515s-8.1,2.46-7.06,2.08c-5.54,2-11,4.17-16.48,6.41s-10.89,4.51-16.24,7c-1.51.7-5.8,1.93-6.49,3.46Q233.81,664.24,174.34,794.55c-18.89,41.4-39.53,82.53-54.15,125.7-13.6,40.14-20.83,83.14-11.2,125,16.84,73.29,76.19,129.44,143.35,158.61,38.24,16.61,79.39,25.7,120.71,30.29,42.76,4.75,86.1,5.13,129,2.29a803,803,0,0,0,129.86-19.33c47.27-11.08,93.16-26.8,138.14-45q19.49-7.87,38.68-16.43c2.7-1.2,8-2.84,10.4-4.93,1.87-1.62-2.45.14-2.64.2a310.46,310.46,0,0,0-31.8,12.6Z"/><path class="cls-2" d="M356.72,398.53c-8,13-12.55,28.45-17.2,42.83-3.23,10-6.51,20.2-6.81,30.78-.45,15.31,3.89,30.14,11.26,43.47,8.2,14.81,19.5,27.59,30.87,40,10.55,11.55,21.13,23.14,32.81,33.56,13.28,11.84,28.06,21.94,45,27.76,1.9.65,18.29-46.58,16.45-47.22-33.43-11.5-57.69-39.09-80.75-64.55-12.44-13.74-24.65-28.24-32.18-45.36a82.2,82.2,0,0,1-6.59-24.47,64,64,0,0,1,0-13.2c.18-1.74.49-3.46.76-5.19-5,31.62-16.31,39.66-8.77,27.33,1.92-3.14,3.23-7.22,4.53-10.59,2.3-6,4.46-12.06,6.46-18.15,1.55-4.73,3.19-9.47,4.34-14.31.11-.47,1.2-4.9-.13-2.71Z"/><path class="cls-2" d="M378.24,524.35a504.86,504.86,0,0,0,57.87-76.65q12.57-20.49,23.15-42.13c6.79-13.88,12-28.6,19.35-42.2,7.68-14.25,18.9-23.39,33.12-30.75,15.06-7.8,30.46-15,45.89-22q46.78-21.27,95.14-38.8,54.48-19.72,110.55-34.54c.38-.11-5.06-7-4.26-6-3.7-4.57-7.61-9-11.54-13.4s-7.9-8.75-12-12.94c-.85-.85-4.34-5.21-5.51-4.9a1302.11,1302.11,0,0,0-193.75,68q-23.49,10.41-46.56,21.73c-14.14,6.95-28.8,13.8-38.4,26.81-9,12.19-13.83,27-20.09,40.71q-10,21.86-22.12,42.68a503.77,503.77,0,0,1-64.15,87.16c-1.17,1.29,14.4,17.86,15.8,19.42,1.22,1.36,16.91,18.54,17.55,17.84Z"/><path class="cls-2" d="M443.56,379.67a308.74,308.74,0,0,1,142.05,72.05c9,8.09,17.93,17.1,22.9,28.32,5.75,13,3.38,26-2.32,38.51-10.29,22.58-22.9,44.48-35.23,66-23.82,41.51-50.94,82-86.1,114.85-17.05,15.91-36,29.9-56.73,40.61-19.24,9.93-40.73,16-58.22,29.14-8.58,6.45-15.91,15-17.79,25.9-2.13,12.25,3.13,24,11.91,32.38,10.43,10,24.39,14.39,38.56,15.3,23.16,1.49,46.92-2.73,69.72-6.18,4.88-.74,9.92-1.44,14.72-2.64.66-.16,4.6-.76,2.36-1.43-3.16-.94-8.46.38-11.5.69q-9.58,1-19.12,2.42c-1.84.28-3.7.63-5.55.83,9.43-1-5.55.58,3.85-.52.28,0,6.7-.38,1.63-.21,1.62-.06-4.49.06-3.55.06a71.6,71.6,0,0,1-21.72-3.15c-10.46-3.42-20.16-10.23-26.27-19.46-12.12-18.32-3.89-38.47,12.31-50.65,17.32-13,38.86-18.86,57.87-28.83a261.38,261.38,0,0,0,54.9-38.91c34.69-31.76,61.63-71.08,85.19-111.52,11.8-20.26,22.83-41,33.6-61.8,6-11.65,12.23-24.21,10.14-37.72-1.95-12.59-10.23-23.21-19-32-40.36-40.54-95.33-67.48-150.94-79.19-3.19-.67-8.5.38-11.5.68-6.39.63-12.78,1.45-19.12,2.42-4.91.76-9.89,1.44-14.72,2.64-.65.16-4.77.92-2.35,1.43Z"/><path class="cls-2" d="M272.15,903c10.53-4.19,21-8.83,31.69-12.56,3.94-1.37,8.08-2.33,12.2-1.17a13.31,13.31,0,0,1,4,1.88l.84.66q8.42,7.6-11.34-14.47c-7.45-9.32-15.13-20.82-11.63-14.24a198,198,0,0,0,15.71,25.68,361.38,361.38,0,0,0,23.17,28.61,45.84,45.84,0,0,0,10,8.6c7.41,4.5,16.07,6.28,24.64,6.82,9.05.57,18.15-1.14,27.15-.24A26.4,26.4,0,0,1,412,937.7c12.84,9.19-29.37-41.93-20.59-25.67,1.14,2.11,2.17,4.29,3.15,6.48,4.25,9.52,8.14,19.21,12.19,28.81,2.27,5.37,4.32,10.9,6.94,16.11,3.85,7.64,9.33,14.49,14.54,21.22,7.09,9.17,14.26,20,23.32,27.4,3.21,2.63,6.75,4.06,10.92,3.48.35,0-4.64-7.29-3.9-6.25-3.41-4.79-7-9.47-10.7-14.08s-7.36-9.21-11.24-13.65c-.83-.95-3.92-5.41-5.19-5.23-4.26.6-7-.8-10.28-3.3.07.05,24.56,30.93,24.24,30.27-.4-.83-.89-1.62-1.3-2.44-1.18-2.35-2.17-4.79-3.19-7.21l-13.13-31.12A134.9,134.9,0,0,0,411.47,934a340.45,340.45,0,0,0-24.18-29.8A36.48,36.48,0,0,0,377.16,896c-9.07-4.56-19.67-2.28-29.37-2.18-8.46.09-17.14-.67-25.12-3.66A38.79,38.79,0,0,1,312.12,884c-8.91-7,30.76,43,22.08,27.58-1-1.82-2-3.69-2.94-5.56-7.67-14.83-18.39-27.89-29.06-40.65-7-8.37-13.92-18.18-26.11-15.16-5.58,1.37-10.95,4-16.27,6.15l-18.7,7.44c-.28.11,13.43,18.84,14.6,20.32,3.67,4.62,7.36,9.22,11.24,13.65.66.76,4.29,5.59,5.19,5.23Z"/><path class="cls-2" d="M225.59,967.88a141.69,141.69,0,0,0,72,40.37c3.55.78,7.95.56,11.5.62,6.41.12,12.85.06,19.26-.16,5-.17,10-.26,14.93-.85.5-.06,5-.53,2.5-1.08a138.23,138.23,0,0,1-70.22-39.67c-1-1-6.85-.82-7.34-.84-5.87-.25-11.8-.23-17.68-.12s-11.79.24-17.67.67c-.83.06-7.23,1.14-7.3,1.06Z"/><path class="cls-2" d="M634.23,742.94c8.52,26.64,29.69,46.24,49.73,64.64,10.87,10,22.36,19,36.92,22.75,15.26,3.89,31.53,4.78,47.12,6.73l57.36,7.2c.75.09,3.79-7.12,3.5-6.49,2.47-5.33,4.76-10.79,7-16.25.7-1.73,8.51-23.56,8.37-23.58l-50.43-6.33c-15.93-2-32.12-3.34-47.92-6.27-15.08-2.8-27.18-10-38.59-20.06a364.8,364.8,0,0,1-29.82-28.9c-10.55-11.66-19.54-24.67-24.36-39.76,0,0-4,7.46-3.5,6.48-2.48,5.34-4.76,10.8-7,16.25s-4.39,10.95-6.35,16.5c-.6,1.7-2.58,5.35-2,7.09Z"/><path class="cls-2" d="M697,566.14c38.56,5.18,79,11,111.19,34.55,16,11.73,29.88,26.52,42.65,41.65a375.22,375.22,0,0,1,63.83,108.23c1,2.52,48-14.13,47.87-14.43a377,377,0,0,0-58.9-102.27c-12.45-15.37-26-30.33-41.39-42.82s-33-21.14-51.88-26.87c-21.31-6.47-43.48-9.51-65.5-12.46-2-.28-5.54,1-7.21,1.42-5.71,1.46-11.38,3.11-17,4.82s-11.28,3.44-16.85,5.38c-1.43.5-5.6,3-6.8,2.8Z"/><path class="cls-2" d="M347,1295.3c-1.05,94.07-2.27,188.14-3.15,282.22-.74,79.11,1.8,165.45,54.84,229.35a168.64,168.64,0,0,0,43.35,37.52c24.2,14.37,52.53,20.33,79.88,25.46,2.85.54,8.22,2.23,11.36,1.85,2.43-.29-2-1.3-2.28-1.38a289.39,289.39,0,0,0-33.29-7.84c-9.26-1.74,23.24,6,19.6,4.55,2.23.91.06,0-.4-.12-1.49-.46-3-.94-4.42-1.47q-6.07-2.22-11.9-5a141,141,0,0,1-21.37-12.74,175.79,175.79,0,0,1-35.42-34.51c-22.2-28.45-35.57-62.18-42.74-97.34-8.3-40.66-8.78-82.4-8.44-123.73.36-44.79,1-89.58,1.48-134.37l1.7-151.54c0-2.07-21.93-6-24.16-6.53-1.79-.4-24.64-4.73-24.64-4.36Z"/><path class="cls-2" d="M342.71,1602.18c-35.26,13.42-70.65,26.58-105.75,40.43-34.93,13.79-69.57,28.63-102,47.73-2.6,1.53,3.48-.08,2.68.1,4.83-1.09,9.66-2.63,14.37-4.11,6.13-1.92,12.24-3.9,18.28-6.09,3.53-1.27,7.46-2.33,10.7-4.24,29.69-17.49,62.09-31.75,93.57-44.11,34-13.33,68.17-26.08,102.27-39.06-.91.35,6.9-2.47,6.7-3.08s-8.17,1.72-7.22,1.46c-11.34,3.12-22.63,6.78-33.62,11Z"/></svg>