<svg id="Capa_1" data-name="Capa 1" xmlns="http://www.w3.org/2000/svg" viewBox="0 0 1417.32 1984.25"><defs><style>.cls-1{fill:#fd0;}.cls-2{fill:#1d1d1b;}</style></defs><rect class="cls-1" x="141.73" y="141.73" width="1133.86" height="1700.79"/><path class="cls-2" d="M897.86,1272.54c-60.44,51.56-106.38,117.76-136.8,190.88a469.84,469.84,0,0,0-30.77,111.16c-6.94,46.38-8.76,93-9.67,139.86q-1.53,78.58-3,157.17c-.29,15.7,14,30.72,30,30,16.51-.74,29.69-13.18,30-30L779.74,1761c.69-36.44,1-72.92,2.87-109.32,1.07-20.23,2.73-40.43,5.39-60.51l-1.07,8a480.42,480.42,0,0,1,33.23-122.71l-3,7.17a479.16,479.16,0,0,1,39.63-74.31q5.7-8.74,11.79-17.23,3-4.24,6.18-8.41a40.74,40.74,0,0,1,2.91-3.84c.3-.31-4.23,5.41-2.23,2.9.83-1,1.65-2.11,2.49-3.16q13-16.33,27.4-31.48a467.24,467.24,0,0,1,35-33.09c12-10.22,11.3-32,0-42.42-12.75-11.71-29.64-10.91-42.42,0Z"/><path class="cls-2" d="M327.17,1212.47C248.11,1253,195.5,1329.24,163.82,1410.15c-17.25,44.08-27.4,90.33-33.32,137.2a586.27,586.27,0,0,0-.53,142.08c6.53,55.3,19.49,109.32,40.75,160.85,3.12,7.54,6.46,13.64,13.79,17.93,6.43,3.76,15.91,5.36,23.12,3s14.26-6.84,17.93-13.78c3.5-6.63,6-15.84,3-23.12a581.53,581.53,0,0,1-38.57-144l1.07,8a592.92,592.92,0,0,1,.11-156.22l-1.07,8c6.37-46.39,18-92.15,36.2-135.35l-3,7.16a409.49,409.49,0,0,1,42.12-76.61q3.07-4.37,6.29-8.62a13.37,13.37,0,0,0,1.84-2.42c.05-.3-4.23,5.39-2.36,3.07,1.27-1.58,2.52-3.18,3.79-4.75q6.94-8.51,14.44-16.52A320.15,320.15,0,0,1,321,1286.92c2.39-2-3.49,2.54-3.1,2.38a18.21,18.21,0,0,0,3-2.27q2.42-1.8,4.88-3.54,4.92-3.49,10-6.76,10.53-6.75,21.7-12.45c14-7.17,19.21-28,10.76-41-9.2-14.28-26.07-18.43-41-10.77Z"/><path class="cls-2" d="M97.22,977.32c55-18.46,110.9-35.25,168.53-43l-8,1.07c34.32-4.5,69.07-5.64,103.45-1.1l-8-1.07a282.46,282.46,0,0,1,71,19.14l-7.17-3A261.2,261.2,0,0,1,460.59,973q4.65,3.15,9.18,6.49l2.24,1.68c3.66,2.69-2.7-2.1-2.73-2.13,1.72,1.55,3.67,2.9,5.47,4.38,6.13,5,12,10.34,17.73,15.87s11.18,11.33,16.43,17.31q3.72,4.23,7.3,8.6c1.19,1.46,2.37,2.92,3.54,4.4.59.74,1.16,1.49,1.75,2.23-6.11-7.58-2.51-3.25-1.25-1.57a381.06,381.06,0,0,1,26.24,40.06,469.42,469.42,0,0,1,24.67,50.25l-3-7.16c23.55,56.23,36.92,115.75,45.08,176l-1.08-8c9.08,68,11.74,136.77,10.11,205.35-1.64,69-7.52,137.78-15.28,206.31-4.4,38.88-9.41,77.69-14.62,116.47l1.07-8q-3.51,26.12-7.1,52.22c-1.15,8.36-1.43,15.5,3,23.11,3.65,6.23,10.78,12.16,17.93,13.79,7.68,1.75,16.3,1.37,23.12-3,6.06-3.91,12.76-10.43,13.79-17.93,14.15-103.34,28.39-206.82,34.91-311,6.45-103,4.64-206.33-11.38-308.42-12.28-78.27-35.57-157-77.91-224.53-20.49-32.71-45.61-63.37-75.89-87.49-34.79-27.71-74.36-48.05-117.88-58.1-94.39-21.81-192.46.17-282.9,28.8q-16,5.06-31.86,10.42c-14.85,5-26.13,20.89-20.95,36.9,4.78,14.77,21,26.31,36.9,21Z"/><path class="cls-2" d="M564.11,1024.12a463.34,463.34,0,0,1,34.7-34q9.12-8,18.67-15.59l2.55-2q-5.91,4.55-2.22,1.72c1.51-1.14,3-2.29,4.53-3.42q4.89-3.63,9.86-7.13A457.38,457.38,0,0,1,717,916.61l-7.16,3a421,421,0,0,1,105.25-29.09l-8,1.07a372.15,372.15,0,0,1,98.62-.32l-8-1.07a365.72,365.72,0,0,1,91.44,25.13l-7.17-3a370.54,370.54,0,0,1,43.74,22q10.85,6.4,21.22,13.57,4.88,3.36,9.62,6.88c1.56,1.15,3.07,2.57,4.72,3.56.47.28-5.6-4.39-3.15-2.42l2.89,2.29a337.87,337.87,0,0,1,36.15,33.59q8.25,8.88,15.82,18.38a19.91,19.91,0,0,0,1.82,2.31c-.1-.09-4.76-6.28-2-2.58,1.17,1.58,2.35,3.14,3.51,4.72q3.67,5.05,7.16,10.24a303.19,303.19,0,0,1,26.84,49.71l-3-7.16c13.61,32.42,22,66.65,29.1,101s13,68.83,17.65,103.53l-1.07-8a1502.33,1502.33,0,0,1,9,310.66q-3.29,43.89-9.14,87.52l1.07-8a1495.25,1495.25,0,0,1-42.06,203.73c-4.24,15.09,5.21,33.31,20.95,36.9,15.92,3.63,32.36-4.78,36.9-21a1528.92,1528.92,0,0,0,55-345.51A1528.3,1528.3,0,0,0,1240,1181.27c-10.47-56.07-23-112.84-50.54-163.36-22.31-40.93-53.86-77.14-90.58-105.75-77.11-60.08-174.79-91-272.58-82.66-104.52,8.92-203,55.65-279.5,126.93q-13,12.15-25.09,25.27c-10.64,11.54-12.27,31.16,0,42.42,11.57,10.63,31.07,12.33,42.43,0Z"/><path class="cls-2" d="M1117.26,450.79c3.73,4.73-4.38-5.85-.8-1,1,1.28,1.9,2.54,2.83,3.83,1.55,2.12,3,4.28,4.53,6.45q5.06,7.47,9.59,15.27A284.61,284.61,0,0,1,1149,506.68l-3-7.17c13.49,32.12,21.39,66.18,26.08,100.63l-1.07-8c4.55,34,6.07,68.39,6.43,102.71.39,37.12,1.46,75-3.33,111.9l1.08-8a236,236,0,0,1-16.09,58.58l3-7.16c-14.7,34.76-35.92,66.11-57.12,97.15-8.88,13-2.87,33.84,10.76,41,15.23,8.05,31.57,3.11,41-10.76,23.46-34.33,45.83-68.85,61.47-107.55,16.35-40.47,18.66-83.61,19.08-126.75.7-73.39.24-148.69-19.67-219.91a364.24,364.24,0,0,0-22.64-59.81c-9.58-19.9-21.7-37.95-35.38-55.25-4.44-5.62-14.41-8.79-21.21-8.79-7.36,0-16.15,3.27-21.21,8.79-5.25,5.72-9.15,13.22-8.79,21.21.38,8.46,3.58,14.62,8.79,21.21Z"/><path class="cls-2" d="M847.4,111.38c-20.83,39.06-26.48,83.52-18.19,126.82a177.92,177.92,0,0,0,22.12,57.55c10.34,17.18,24,32.26,37.26,47.19,3.32,3.72,6.62,7.46,9.85,11.25,1.6,1.89,3.18,3.78,4.74,5.7l2.3,2.88c2.23,2.8-4.44-5.95-1.58-2,5.93,8.18,11.29,16.58,15.24,25.91l-3-7.16A86.8,86.8,0,0,1,921.54,399l-1.07-8a83,83,0,0,1-.05,22l1.07-8a102,102,0,0,1-7,24.18l3-7.17a136.57,136.57,0,0,1-11.25,20.6c-2,3-4.13,5.81-6.2,8.72,5.44-7.66.93-1.28-.46.39s-2.85,3.36-4.32,5c-10.39,11.63-22.19,21.86-34.07,31.93-25.22,21.41-50.7,42.78-68.17,71.38-18.42,30.18-26.2,66.63-25.23,101.74,1,37.25,11.24,72.33,26.14,106.21,15.56,35.41,36.87,67.87,58,100.09,8.61,13.09,26.94,19.86,41.05,10.76,13.07-8.42,20-27,10.76-41-22-33.49-44-67.22-59.83-104.19l3,7.16c-8.86-21.06-15.48-42.89-18.56-65.57l1.07,8a199.26,199.26,0,0,1-.22-50.83l-1.07,8a159.11,159.11,0,0,1,10.41-39.06l-3,7.17a138.25,138.25,0,0,1,9.66-18.79c1.71-2.77,3.53-5.48,5.43-8.13a14.72,14.72,0,0,1,1.93-2.61c.32-.23-4.25,5.33-2.21,2.86,1.2-1.45,2.37-2.94,3.59-4.38,9.15-10.79,19.53-20.46,30.19-29.74,21.27-18.52,43.87-35.68,61.45-58,20.79-26.37,37.71-58.46,35.35-93.12a119.05,119.05,0,0,0-14-48.54c-6.86-12.94-16.23-24.59-25.65-35.72S922,290.81,912.86,279.57a34.75,34.75,0,0,0-3.24-4.06c-.36-.32,4.25,5.65,2.44,3.13-.57-.8-1.17-1.58-1.75-2.37-2.24-3.09-4.37-6.24-6.37-9.49a154.23,154.23,0,0,1-10.57-20.63l3,7.17a163.7,163.7,0,0,1-10.81-40.25l1.07,8a167.42,167.42,0,0,1,.08-43.25l-1.07,8a159.32,159.32,0,0,1,10.54-38.7l-3,7.17q2.74-6.42,6-12.57c7.38-13.84,3.94-33.27-10.76-41-13.92-7.35-33.16-4-41.05,10.76Z"/><path class="cls-2" d="M581.6,464.34a189.42,189.42,0,0,1-1.31,38l1.08-8a200.25,200.25,0,0,1-13.28,48.38l3-7.17a201.39,201.39,0,0,1-16.32,31q-2.49,3.84-5.15,7.57c-.88,1.24-1.79,2.46-2.7,3.69-3.46,4.69,4.69-5.75,1-1.26s-7.51,8.93-11.58,13.14-8.31,8.21-12.75,12c-1.15,1-2.33,2-3.51,2.92-1.78,1.45-6.25,4.08,1.27-.92-2.37,1.57-4.6,3.39-7,5A188.81,188.81,0,0,1,482,626.38l7.16-3a200.73,200.73,0,0,1-50,13.56l8-1.07a201.53,201.53,0,0,1-51.82,0l8,1.08A190,190,0,0,1,356.3,624.3l7.17,3a206.83,206.83,0,0,1-34.55-18.69q-3.84-2.57-7.56-5.29c-1-.72-5.43-4.12-1.27-.89s-.8-.65-1.81-1.47c-5-4.05-9.84-8.31-14.52-12.73a302.84,302.84,0,0,1-27-29.19q-1.48-1.83-2.94-3.68c-.49-.61-1-1.24-1.46-1.85-1.94-2.46,2.62,3.17,2.29,3-2.32-1.45-4.49-6-6.1-8.22q-5.76-8-11.14-16.27c-8.29-12.73-15.91-25.89-23-39.31-7.37-13.88-27.81-19.3-41-10.76-14.11,9.1-18.66,26.2-10.77,41.05,39.52,74.35,99.3,147,184.62,168,42.87,10.57,89.9,8.47,131.29-7.2a220.28,220.28,0,0,0,105.58-83.14c26.71-39.3,40.7-88.87,37.53-136.35-1-15.62-13.05-30.76-30-30-15.36.69-31.12,13.23-30,30Z"/><path class="cls-2" d="M432.19,550c15.69,0,30.73-13.8,30-30s-13.18-30-30-30c-15.69,0-30.72,13.8-30,30s13.18,30,30,30Z"/><path class="cls-2" d="M432.19,550c15.69,0,30.73-13.8,30-30s-13.18-30-30-30c-15.69,0-30.72,13.8-30,30s13.18,30,30,30Z"/><path class="cls-2" d="M432.19,550c15.69,0,30.73-13.8,30-30s-13.18-30-30-30c-15.69,0-30.72,13.8-30,30s13.18,30,30,30Z"/><path class="cls-2" d="M902.69,421.67c15.69,0,30.72-13.8,30-30s-13.18-30-30-30c-15.69,0-30.73,13.8-30,30s13.18,30,30,30Z"/><path class="cls-2" d="M902.69,421.67c15.69,0,30.72-13.8,30-30s-13.18-30-30-30c-15.69,0-30.73,13.8-30,30s13.18,30,30,30Z"/><path class="cls-2" d="M902.69,421.67c15.69,0,30.72-13.8,30-30s-13.18-30-30-30c-15.69,0-30.73,13.8-30,30s13.18,30,30,30Z"/></svg>