<svg id="Capa_1" data-name="Capa 1" xmlns="http://www.w3.org/2000/svg" viewBox="0 0 1417.32 1984.25"><defs><style>.cls-1{fill:#c63738;}.cls-2{font-size:105px;fill:#1d1d1b;font-family:BebasNeue-Regular, Bebas Neue;}.cls-2,.cls-5{letter-spacing:0.06em;}.cls-3{letter-spacing:0.06em;}.cls-4{letter-spacing:0.04em;}.cls-6{fill:none;stroke:#1d1d1b;stroke-miterlimit:10;stroke-width:6px;}</style></defs><polygon class="cls-1" points="165.45 115.29 114.13 1642.27 1303.2 1868.96 1303.2 222.22 165.45 115.29"/><text class="cls-2" transform="translate(142.98 1635.82)">THE<tspan x="0" y="88">POWER OF</tspan><tspan class="cls-3"><tspan x="0" y="176">GEOMET</tspan><tspan class="cls-4" x="291.16" y="176">R</tspan><tspan class="cls-5" x="337.99" y="176">Y </tspan></tspan></text><polygon class="cls-6" points="1023.04 96.76 1306.76 908.01 1232.62 1298.66 940.35 1811.93 846.25 1887.49 582.48 1548.17 110.56 832.44 615.27 265 1023.04 96.76"/><polyline class="cls-6" points="1023.04 96.76 606.72 715.53 615.27 265"/><polyline class="cls-6" points="110.56 832.44 606.72 715.53 1129.97 1084.8 1232.62 1298.66"/><polyline class="cls-6" points="1306.76 908.01 1129.97 1084.8 881.89 1682.18 940.35 1811.93"/><polyline class="cls-6" points="695.12 1441.23 606.72 715.53 582.48 1548.17 695.12 1441.23 884.27 1687.46 846.25 1887.49"/></svg>